#N canvas 0 48 1366 697 10;
#X obj 40 117 pix_film;
#X obj 240 551 pix_texture;
#X obj 530 656 rectangle 6 4;
#X obj 105 41 bng 15 250 50 0 empty empty empty 17 7 0 10 -262144 -1
-1;
#X obj 105 61 openpanel;
#X msg 105 83 open \$1;
#X obj 56 146 unpack 0 0 0;
#X floatatom 56 169 5 0 0 0 - - -, f 5;
#X floatatom 98 169 5 0 0 0 - - -, f 5;
#X floatatom 138 168 5 0 0 0 - - -, f 5;
#X floatatom 105 111 5 0 0 0 - - -, f 5;
#X obj 1208 187 gemwin;
#X msg 1209 135 create \, 1;
#X msg 1276 165 0 \, destroy;
#X obj 36 406 rotateXYZ;
#X floatatom 54 380 5 0 0 0 - - -, f 5;
#X floatatom 96 380 5 0 0 0 - - -, f 5;
#X floatatom 136 379 5 0 0 0 - - -, f 5;
#X obj 19 76 tgl 15 0 empty empty empty 17 7 0 10 -262144 -1 -1 0 1
;
#X msg 19 96 auto \$1;
#X floatatom 131 443 5 0 0 0 - - -, f 5;
#X floatatom 173 443 5 0 0 0 - - -, f 5;
#X floatatom 217 443 5 0 0 0 - - -, f 5;
#X obj 36 443 translateXYZ;
#X msg 131 423 0.35;
#X msg 173 423 -0.63;
#X obj 178 40 tgl 15 0 empty empty empty 17 7 0 10 -262144 -1 -1 0
1;
#X obj 179 61 metro 55;
#X obj 179 86 counter 4500 6500;
#X obj 395 300 pix_threshold;
#X floatatom 470 232 5 0 0 0 - - -, f 5;
#X floatatom 507 232 5 0 0 0 - - -, f 5;
#X floatatom 547 232 5 0 0 0 - - -, f 5;
#X floatatom 587 232 5 0 0 0 - - -, f 5;
#X obj 470 275 pack 0 0 0 0;
#X obj 470 252 bondo 4;
#X obj 39 20 tgl 15 0 empty empty empty 17 7 0 10 -262144 -1 -1 0 1
;
#X obj 40 45 gemhead 1;
#X obj 421 116 pix_film;
#X obj 486 40 bng 15 250 50 0 empty empty empty 17 7 0 10 -262144 -1
-1;
#X obj 486 60 openpanel;
#X msg 486 82 open \$1;
#X obj 437 145 unpack 0 0 0;
#X floatatom 437 168 5 0 0 0 - - -, f 5;
#X floatatom 479 168 5 0 0 0 - - -, f 5;
#X floatatom 519 167 5 0 0 0 - - -, f 5;
#X floatatom 486 110 5 0 0 0 - - -, f 5;
#X obj 400 75 tgl 15 0 empty empty empty 17 7 0 10 -262144 -1 -1 0
1;
#X msg 400 95 auto \$1;
#X obj 559 39 tgl 15 0 empty empty empty 17 7 0 10 -262144 -1 -1 0
1;
#X obj 420 19 tgl 15 0 empty empty empty 17 7 0 10 -262144 -1 -1 0
1;
#X obj 240 518 pix_mix;
#X obj 279 487 hsl 128 15 0 1 0 0 empty empty empty -2 -8 0 10 -262144
-1 -1 0 1;
#X obj 421 44 gemhead 2;
#X obj 127 310 pix_motionblur;
#X floatatom 194 259 5 0 0 0 - - -, f 5;
#X obj 192 283 / 100;
#X obj 1121 151 tgl 15 0 empty empty empty 17 7 0 10 -262144 -1 -1
0 1;
#X msg 1121 171 fullscreen \$1;
#X floatatom 1276 107 5 0 0 0 - - -, f 5;
#X obj 1275 127 sel 120;
#X obj 1276 150 bng 15 250 50 0 empty empty empty 17 7 0 10 -262144
-1 -1;
#X obj 1276 84 key;
#X floatatom 488 399 5 0 0 0 - - -, f 5;
#X floatatom 530 399 5 0 0 0 - - -, f 5;
#X floatatom 574 399 5 0 0 0 - - -, f 5;
#X obj 393 399 translateXYZ;
#X msg 488 379 0.35;
#X msg 530 379 -0.63;
#X msg 574 379 0.78;
#X obj 54 277 pix_colormatrix;
#X floatatom 209 191 3 -1 2 0 - - -, f 3;
#X floatatom 232 191 3 -1 2 0 - - -, f 3;
#X floatatom 255 191 3 -1 2 0 - - -, f 3;
#X floatatom 209 205 3 -1 2 0 - - -, f 3;
#X floatatom 232 205 3 -1 2 0 - - -, f 3;
#X floatatom 255 205 3 -1 2 0 - - -, f 3;
#X floatatom 209 219 3 -1 2 0 - - -, f 3;
#X floatatom 232 219 3 -1 2 0 - - -, f 3;
#X floatatom 255 219 3 -1 2 0 - - -, f 3;
#N canvas 0 0 450 300 pack 0;
#X obj 69 169 pack 0 0 0 0 0 0 0 0 0;
#X obj 69 139 t b f;
#X obj 106 139 t b f;
#X obj 143 139 t b f;
#X obj 180 139 t b f;
#X obj 217 139 t b f;
#X obj 254 139 t b f;
#X obj 291 139 t b f;
#X obj 328 139 t b f;
#X obj 32 111 inlet;
#X obj 69 111 inlet;
#X obj 106 111 inlet;
#X obj 143 111 inlet;
#X obj 180 111 inlet;
#X obj 217 111 inlet;
#X obj 254 111 inlet;
#X obj 291 111 inlet;
#X obj 328 111 inlet;
#X obj 69 196 outlet;
#X connect 0 0 18 0;
#X connect 1 0 0 0;
#X connect 1 1 0 1;
#X connect 2 0 0 0;
#X connect 2 1 0 2;
#X connect 3 0 0 0;
#X connect 3 1 0 3;
#X connect 4 0 0 0;
#X connect 4 1 0 4;
#X connect 5 0 0 0;
#X connect 5 1 0 5;
#X connect 6 0 0 0;
#X connect 6 1 0 6;
#X connect 7 0 0 0;
#X connect 7 1 0 7;
#X connect 8 0 0 0;
#X connect 8 1 0 8;
#X connect 9 0 0 0;
#X connect 10 0 1 0;
#X connect 11 0 2 0;
#X connect 12 0 3 0;
#X connect 13 0 4 0;
#X connect 14 0 5 0;
#X connect 15 0 6 0;
#X connect 16 0 7 0;
#X connect 17 0 8 0;
#X restore 188 232 pd pack 9 . . .;
#X msg 185 160 1;
#X obj 185 141 loadbang;
#X msg 217 423 -0.78;
#X obj 562 59 metro 55;
#X obj 261 348 pix_mask;
#X obj 264 376 alpha;
#X floatatom 313 370 5 0 0 0 - - -, f 5;
#X msg 96 356 -11;
#X msg 54 358 -3.08;
#X msg 137 354 -90;
#X obj 560 85 counter 1500 1600;
#X obj 283 613 scale;
#X obj 402 644 alpha;
#X obj 240 587 color;
#X floatatom 430 527 5 0 0 0 - - -, f 5;
#X floatatom 467 527 5 0 0 0 - - -, f 5;
#X floatatom 507 527 5 0 0 0 - - -, f 5;
#X obj 430 570 pack 0 0 0 0;
#X obj 430 547 bondo 3;
#X floatatom 582 524 5 0 0 0 - - -, f 5;
#X floatatom 619 524 5 0 0 0 - - -, f 5;
#X floatatom 659 524 5 0 0 0 - - -, f 5;
#X obj 582 567 pack 0 0 0 0;
#X obj 582 544 bondo 3;
#X floatatom 430 611 5 0 0 0 - - -, f 5;
#X connect 0 0 14 0;
#X connect 0 0 54 0;
#X connect 0 0 70 0;
#X connect 0 0 51 0;
#X connect 0 1 6 0;
#X connect 1 0 94 0;
#X connect 3 0 4 0;
#X connect 4 0 5 0;
#X connect 5 0 0 0;
#X connect 6 0 7 0;
#X connect 6 1 8 0;
#X connect 6 2 9 0;
#X connect 10 0 0 1;
#X connect 12 0 11 0;
#X connect 13 0 11 0;
#X connect 14 0 23 0;
#X connect 15 0 14 1;
#X connect 16 0 14 2;
#X connect 17 0 14 3;
#X connect 18 0 19 0;
#X connect 19 0 0 0;
#X connect 20 0 23 1;
#X connect 21 0 23 2;
#X connect 22 0 23 3;
#X connect 23 0 51 0;
#X connect 24 0 20 0;
#X connect 25 0 21 0;
#X connect 26 0 27 0;
#X connect 27 0 28 0;
#X connect 28 0 10 0;
#X connect 29 0 52 0;
#X connect 30 0 35 0;
#X connect 31 0 35 1;
#X connect 32 0 35 2;
#X connect 33 0 35 3;
#X connect 34 0 29 2;
#X connect 35 0 34 0;
#X connect 35 1 34 1;
#X connect 35 2 34 2;
#X connect 35 3 34 3;
#X connect 36 0 37 0;
#X connect 37 0 0 0;
#X connect 38 0 29 0;
#X connect 38 0 66 0;
#X connect 38 1 42 0;
#X connect 39 0 40 0;
#X connect 40 0 41 0;
#X connect 41 0 38 0;
#X connect 42 0 43 0;
#X connect 42 1 44 0;
#X connect 42 2 45 0;
#X connect 46 0 38 1;
#X connect 47 0 48 0;
#X connect 48 0 38 0;
#X connect 49 0 84 0;
#X connect 50 0 53 0;
#X connect 51 0 1 0;
#X connect 52 0 51 2;
#X connect 53 0 38 0;
#X connect 54 0 51 0;
#X connect 55 0 56 0;
#X connect 56 0 54 1;
#X connect 57 0 58 0;
#X connect 58 0 11 0;
#X connect 59 0 60 0;
#X connect 60 0 61 0;
#X connect 61 0 13 0;
#X connect 62 0 59 0;
#X connect 63 0 66 1;
#X connect 64 0 66 2;
#X connect 65 0 66 3;
#X connect 66 0 51 1;
#X connect 67 0 63 0;
#X connect 68 0 64 0;
#X connect 69 0 65 0;
#X connect 70 0 51 0;
#X connect 71 0 80 0;
#X connect 72 0 80 1;
#X connect 73 0 80 2;
#X connect 74 0 80 3;
#X connect 75 0 80 4;
#X connect 76 0 80 5;
#X connect 77 0 80 6;
#X connect 78 0 80 7;
#X connect 79 0 80 8;
#X connect 80 0 70 1;
#X connect 81 0 71 0;
#X connect 81 0 75 0;
#X connect 81 0 79 0;
#X connect 82 0 81 0;
#X connect 83 0 22 0;
#X connect 84 0 91 0;
#X connect 85 0 86 0;
#X connect 87 0 86 1;
#X connect 88 0 16 0;
#X connect 89 0 15 0;
#X connect 90 0 17 0;
#X connect 91 0 46 0;
#X connect 92 0 93 0;
#X connect 93 0 2 0;
#X connect 94 0 92 0;
#X connect 95 0 99 0;
#X connect 96 0 99 1;
#X connect 97 0 99 2;
#X connect 98 0 94 1;
#X connect 99 0 98 0;
#X connect 99 1 98 1;
#X connect 99 2 98 2;
#X connect 100 0 104 0;
#X connect 101 0 104 1;
#X connect 102 0 104 2;
#X connect 103 0 92 2;
#X connect 104 0 103 0;
#X connect 104 1 103 1;
#X connect 104 2 103 2;
#X connect 105 0 93 1;
