#N canvas 588 48 391 697 10;
#N canvas 0 48 1366 697 CO2 0;
#X floatatom 37 72 5 0 0 0 - - -, f 5;
#X floatatom 162 72 5 0 0 0 - - -, f 5;
#X obj 47 -28 route CO2 sr;
#X floatatom 48 -3 5 0 0 0 - - -, f 5;
#X floatatom 85 -3 6 0 0 0 - - -, f 6;
#X obj 50 -48 netreceive 3002;
#X obj 61 259 outlet;
#X obj 128 257 outlet;
#X floatatom 282 70 5 0 0 0 - - -, f 5;
#X obj 189 255 outlet;
#X floatatom 386 70 5 0 0 0 - - -, f 5;
#X obj 243 255 outlet;
#X obj 385 42 map 100 800 0 1;
#X obj 36 44 map 360 2000 0 1;
#X obj 161 44 map 360 1100 0 1;
#X obj 282 42 map 360 1500 0 1;
#X obj 127 225 line;
#X obj 64 223 line;
#X msg 64 200 \$1 2000;
#X obj 190 223 line;
#X obj 247 225 line;
#X msg 127 199 \$1 3000;
#X msg 190 197 \$1 5000;
#X msg 247 197 \$1 3500;
#X obj 191 165 / 0.56;
#X obj 128 165 / 0.87;
#X obj 61 167 / 2;
#X connect 0 0 26 0;
#X connect 1 0 25 0;
#X connect 2 0 3 0;
#X connect 2 1 4 0;
#X connect 3 0 12 0;
#X connect 3 0 13 0;
#X connect 3 0 14 0;
#X connect 3 0 15 0;
#X connect 5 0 2 0;
#X connect 8 0 24 0;
#X connect 10 0 23 0;
#X connect 12 0 10 0;
#X connect 13 0 0 0;
#X connect 14 0 1 0;
#X connect 15 0 8 0;
#X connect 16 0 7 0;
#X connect 17 0 6 0;
#X connect 18 0 17 0;
#X connect 19 0 9 0;
#X connect 20 0 11 0;
#X connect 21 0 16 0;
#X connect 22 0 19 0;
#X connect 23 0 20 0;
#X connect 24 0 22 0;
#X connect 25 0 21 0;
#X connect 26 0 18 0;
#X restore 409 377 pd CO2;
#X obj 32 651 gemwin;
#X obj 319 159 pix_film;
#X obj 319 621 pix_texture;
#X obj 319 514 pix_threshold;
#X msg 32 623 0 \, destroy;
#X floatatom 400 143 5 0 0 0 - - -, f 5;
#X obj 341 183 unpack f f f;
#X floatatom 341 205 5 0 0 0 - - -, f 5;
#X floatatom 378 206 5 0 0 0 - - -, f 5;
#X floatatom 413 206 5 0 0 0 - - -, f 5;
#X obj 319 643 rectangle 6 4;
#X obj 399 28 tgl 15 0 empty empty empty 17 7 0 10 -262144 -1 -1 0
1;
#X floatatom 400 96 5 0 0 0 - - -, f 5;
#X msg 365 72 0;
#X floatatom 370 433 5 0 0 0 - - -, f 5;
#X floatatom 407 433 5 0 0 0 - - -, f 5;
#X floatatom 447 433 5 0 0 0 - - -, f 5;
#X floatatom 487 433 5 0 0 0 - - -, f 5;
#X obj 433 71 + 1;
#X obj 319 594 pix_motionblur;
#X msg 405 488 0 1 0;
#X obj 404 571 / 100;
#X floatatom 404 552 5 0 0 0 - - -, f 5;
#X obj 400 118 % 1664;
#X obj 30 471 key;
#X floatatom 30 489 5 0 0 0 - - -, f 5;
#X obj 30 507 sel 27;
#X obj 400 49 metro 55;
#X obj 394 464 pack 0 0 0 0;
#X obj 88 475 key;
#X floatatom 88 493 5 0 0 0 - - -, f 5;
#X obj 88 511 sel 120;
#X obj 88 533 bng 15 250 50 0 empty empty empty 17 7 0 10 -262144 -1
-1;
#X obj 30 534 bng 15 250 50 0 empty empty empty 17 7 0 10 -262144 -1
-1;
#X obj 318 569 pix_gain;
#X msg 333 540 1 0.5 0.5;
#X obj 321 90 tgl 15 0 empty empty empty 17 7 0 10 -262144 -1 -1 0
1;
#X obj 319 127 gemhead 1;
#X obj 454 499 s CO2sig;
#X obj 252 115 bng 15 250 50 0 empty empty empty 17 7 0 10 -262144
-1 -1;
#X obj 252 132 openpanel;
#X msg 252 151 open \$1;
#X obj 26 33 cnv 15 83 47 empty empty empty 20 12 0 14 -142568 -66577
0;
#N canvas 0 48 1366 697 image 1;
#X obj 46 128 bng 15 250 50 0 empty empty empty 17 7 0 10 -262144 -1
-1;
#X obj 46 145 openpanel;
#X msg 46 164 open \$1;
#X obj 133 197 pix_image;
#X obj 133 134 alpha;
#X obj 133 86 tgl 15 0 empty empty empty 17 7 0 10 -262144 -1 -1 0
1;
#X obj 133 109 gemhead 2;
#X floatatom 139 237 5 0 0 0 - - -, f 5;
#X obj 133 339 pix_alpha;
#X floatatom 149 267 5 0 0 0 - - -, f 5;
#X obj 132 424 pix_texture;
#X obj 132 405 rectangle 6 4;
#X msg 224 312 0 0 0;
#X msg 204 289 1 0.4 0.4;
#X obj 63 256 pix_contrast;
#X floatatom 78 211 5 0 0 0 - - -, f 5;
#X floatatom 39 208 5 0 0 0 - - -, f 5;
#X obj 270 321 r CO2sig;
#X obj 132 386 pix_motionblur;
#X obj 217 363 / 100;
#X floatatom 217 344 5 0 0 0 - - -, f 5;
#X connect 0 0 1 0;
#X connect 1 0 2 0;
#X connect 2 0 3 0;
#X connect 3 0 14 0;
#X connect 3 0 8 0;
#X connect 4 0 3 0;
#X connect 5 0 6 0;
#X connect 6 0 4 0;
#X connect 7 0 8 1;
#X connect 8 0 18 0;
#X connect 9 0 8 2;
#X connect 10 0 11 0;
#X connect 12 0 8 4;
#X connect 13 0 8 3;
#X connect 14 0 8 0;
#X connect 15 0 14 2;
#X connect 16 0 14 1;
#X connect 17 0 8 4;
#X connect 18 0 10 0;
#X connect 19 0 18 1;
#X connect 20 0 19 0;
#X restore 42 49 pd image;
#X obj 400 71 100;
#X obj 709 256 pix_film;
#X obj 705 483 pix_texture;
#X obj 774 180 bng 15 250 50 0 empty empty empty 17 7 0 10 -262144
-1 -1;
#X obj 774 200 openpanel;
#X msg 774 222 open \$1;
#X obj 725 285 unpack 0 0 0;
#X floatatom 725 308 5 0 0 0 - - -, f 5;
#X floatatom 767 308 5 0 0 0 - - -, f 5;
#X floatatom 807 307 5 0 0 0 - - -, f 5;
#X floatatom 847 212 5 0 0 0 - - -, f 5;
#X obj 725 419 rotateXYZ;
#X floatatom 743 373 5 0 0 0 - - -, f 5;
#X floatatom 785 373 5 0 0 0 - - -, f 5;
#X floatatom 825 372 5 0 0 0 - - -, f 5;
#X obj 653 207 tgl 15 0 empty empty empty 17 7 0 10 -262144 -1 -1 0
1;
#X msg 653 227 auto \$1;
#X floatatom 826 430 5 0 0 0 - - -, f 5;
#X floatatom 873 431 5 0 0 0 - - -, f 5;
#X floatatom 919 435 5 0 0 0 - - -, f 5;
#X obj 725 452 translateXYZ;
#X obj 845 51 tgl 15 0 empty empty empty 17 7 0 10 -262144 -1 -1 1
1;
#X floatatom 846 119 5 0 0 0 - - -, f 5;
#X msg 811 95 0;
#X obj 879 94 + 1;
#X obj 846 72 metro 55;
#X obj 846 94 f;
#X obj 846 153 counter 1600 2500;
#X obj 709 184 gemhead 2;
#X obj 709 148 tgl 15 0 empty empty empty 17 7 0 10 -262144 -1 -1 1
1;
#X obj 462 117 tgl 15 0 empty empty empty 17 7 0 10 -262144 -1 -1 0
1;
#X msg 462 137 auto \$1;
#X msg 828 410 0.35;
#X msg 873 410 -0.63;
#X msg 920 412 0.78;
#X msg 743 350 9.92;
#X msg 28 593 create \, 1;
#X obj 706 508 rectangle 4 3;
#X connect 0 0 15 0;
#X connect 0 1 16 0;
#X connect 0 2 17 0;
#X connect 0 3 18 0;
#X connect 2 0 4 0;
#X connect 2 1 7 0;
#X connect 3 0 11 0;
#X connect 4 0 35 0;
#X connect 5 0 1 0;
#X connect 6 0 2 1;
#X connect 7 0 8 0;
#X connect 7 1 9 0;
#X connect 7 2 10 0;
#X connect 12 0 28 0;
#X connect 13 0 24 0;
#X connect 14 0 13 0;
#X connect 15 0 29 0;
#X connect 16 0 29 1;
#X connect 17 0 29 2;
#X connect 18 0 29 3;
#X connect 19 0 45 1;
#X connect 21 0 4 2;
#X connect 22 0 20 1;
#X connect 23 0 22 0;
#X connect 24 0 6 0;
#X connect 25 0 26 0;
#X connect 26 0 27 0;
#X connect 27 0 34 0;
#X connect 28 0 45 0;
#X connect 29 0 4 2;
#X connect 29 0 39 0;
#X connect 30 0 31 0;
#X connect 31 0 32 0;
#X connect 32 0 33 0;
#X connect 33 0 5 0;
#X connect 35 0 20 0;
#X connect 36 0 35 2;
#X connect 37 0 38 0;
#X connect 38 0 2 0;
#X connect 40 0 41 0;
#X connect 41 0 42 0;
#X connect 42 0 2 0;
#X connect 45 0 19 0;
#X connect 45 0 13 0;
#X connect 46 0 56 0;
#X connect 46 0 47 0;
#X connect 46 1 51 0;
#X connect 47 0 82 0;
#X connect 48 0 49 0;
#X connect 49 0 50 0;
#X connect 50 0 46 0;
#X connect 51 0 52 0;
#X connect 51 1 53 0;
#X connect 51 2 54 0;
#X connect 52 0 72 4;
#X connect 55 0 46 1;
#X connect 56 0 65 0;
#X connect 57 0 56 1;
#X connect 58 0 56 2;
#X connect 59 0 56 3;
#X connect 60 0 61 0;
#X connect 61 0 46 0;
#X connect 62 0 65 1;
#X connect 63 0 65 2;
#X connect 64 0 65 3;
#X connect 66 0 70 0;
#X connect 67 0 72 0;
#X connect 68 0 67 0;
#X connect 69 0 71 1;
#X connect 70 0 71 0;
#X connect 71 0 69 0;
#X connect 71 0 67 0;
#X connect 72 0 55 0;
#X connect 73 0 46 0;
#X connect 74 0 73 0;
#X connect 75 0 76 0;
#X connect 76 0 2 0;
#X connect 77 0 62 0;
#X connect 78 0 63 0;
#X connect 79 0 64 0;
#X connect 80 0 57 0;
#X connect 81 0 1 0;
